<svg width="1200" height="630" viewBox="0 0 1200 630" fill="none" xmlns="http://www.w3.org/2000/svg">
  <rect width="1200" height="630" fill="#123A2F"/>
  <rect x="32" y="32" width="1136" height="566" rx="28" fill="url(#paint0_linear)"/>
  <circle cx="1030" cy="120" r="160" fill="#E6B93D" fill-opacity="0.18"/>
  <circle cx="200" cy="520" r="180" fill="#6EC3B4" fill-opacity="0.14"/>
  <path d="M108 458C252 376 367 366 469 391C571 416 666 488 803 496C901 501 980 471 1092 402V566H108V458Z" fill="#2B7A5B" fill-opacity="0.55"/>
  <path d="M108 486C228 430 340 417 452 442C564 467 675 531 808 535C908 537 989 515 1092 456V566H108V486Z" fill="#8ABF63" fill-opacity="0.55"/>
  <text x="108" y="188" fill="#F4F1E8" font-family="Georgia, 'Times New Roman', serif" font-size="64" font-weight="700">
    Discover Nyandungu
  </text>
  <text x="108" y="252" fill="#F4F1E8" font-family="Georgia, 'Times New Roman', serif" font-size="64" font-weight="700">
    Eco Park
  </text>
  <text x="108" y="318" fill="#DDEAE3" font-family="Arial, Helvetica, sans-serif" font-size="28">
    Scan QR codes to explore trails, wildlife,
  </text>
  <text x="108" y="356" fill="#DDEAE3" font-family="Arial, Helvetica, sans-serif" font-size="28">
    gardens, birds, and visitor highlights in Kigali.
  </text>
  <rect x="108" y="410" width="264" height="58" rx="29" fill="#E6B93D"/>
  <text x="145" y="447" fill="#123A2F" font-family="Arial, Helvetica, sans-serif" font-size="24" font-weight="700">
    Scan  Learn  Protect
  </text>
  <defs>
    <linearGradient id="paint0_linear" x1="64" y1="64" x2="1122" y2="566" gradientUnits="userSpaceOnUse">
      <stop stop-color="#1C5A47"/>
      <stop offset="1" stop-color="#16352E"/>
    </linearGradient>
  </defs>
</svg>
